<?xml version="1.0" encoding="UTF-8"?>
<svg width="145px" height="40px" viewBox="0 0 145 40" version="1.1" xmlns="http://www.w3.org/2000/svg" xmlns:xlink="http://www.w3.org/1999/xlink">
    <!-- Generator: Sketch 48.2 (47327) - http://www.bohemiancoding.com/sketch -->
    <title>logoTV_xhdpi</title>
    <desc>Created with Sketch.</desc>
    <defs>
        <polygon id="path-1" points="0 0 146 0 146 40 0 40"></polygon>
    </defs>
    <g id="有象视频TV-logo-白色" stroke="none" stroke-width="1" fill="none" fill-rule="evenodd">
        <g id="logoTV">
            <mask id="mask-2" fill="white">
                <use xlink:href="#path-1"></use>
            </mask>
            <g id="Clip-2"></g>
            <path d="M130.847857,39 C129.281395,39 128,37.8125545 128,36.3609416 L128,35.6390584 C128,34.1877724 129.281395,33 130.847857,33 L142.152143,33 C143.718605,33 145,34.1877724 145,35.6390584 L145,36.3609416 C145,37.8125545 143.718605,39 142.152143,39 L130.847857,39 Z" id="Fill-1" fill="#EEB71B" mask="url(#mask-2)"></path>
            <path d="M15.5051028,40 C5.82772821,40 0,34.5604359 0,20 C0,5.2402153 4.85738626,0 15.5051028,0 C24.1072878,0 39,12.1619377 39,20 C39,28.1826035 26.1531533,40 15.5051028,40 Z" id="Fill-3" fill="#EEB71B" mask="url(#mask-2)"></path>
            <path d="M27.3549169,13.1574867 C26.217844,12.2914577 25.5424497,11.8586072 24.1913319,11.1896564 C24.5917607,13.79299 24.868702,18.964898 19.0440437,16.7196498 C18.4858802,16.5045362 18.701901,16.1326783 18.9297766,16.2071154 C21.6129129,17.0846215 24.7175533,17.9913122 23.4737872,9.95308111 C23.4227457,9.47989678 23.2676454,6.46568309 21.9998404,6.18039524 C17.7324418,5.22058199 15.7342494,8.4043288 15.7144914,8.38694919 C15.3262467,8.39547504 15.3262467,8.39547504 14.9320746,8.39317962 C10.6511747,8.36891375 7.71217226,10.6003894 7.77704436,13.9730164 C7.82084126,16.2513842 7.17014447,18.8494712 6.08312519,21.3823026 C6.08312519,21.3823026 5.33890721,23.0868155 4.15408583,23.0438584 C3.35421614,23.0150017 3.03413655,22.1443819 3.24884014,21.5721666 C3.37726714,21.2314607 3.94168733,21.2531033 3.85080053,20.7087609 C3.75958443,20.1647465 2.62778035,19.7174676 2.30243196,20.7694256 C2.01956327,21.6839863 1.61814657,23.2301153 2.78814945,24.1250009 C4.64704792,25.5465214 6.69101298,24.1069655 7.43951187,23.187814 C10.46051,19.4774323 12.0697991,20.7025305 12.4010749,20.8582911 C14.5609535,21.8745061 13.6293639,26.6325828 13.6820519,27.675687 C13.7357278,28.7440408 15.3608232,29.4306991 16.3974596,28.6905903 C17.180535,28.1314917 17.8635032,24.4066817 18.7822502,23.4963839 C20.7708928,21.5256023 24.6421436,22.578872 25.7383832,23.4963839 C27.3315366,24.8300226 27.5162739,26.6289757 28.4656458,27.4031879 C30.1832746,28.8030658 31.4448228,27.2234893 31.6450372,26.2587573 C32.8697039,20.3641201 30.800712,15.7821349 27.3549169,13.1574867" id="Fill-4" fill="#060101" mask="url(#mask-2)"></path>
            <path d="M16,16.5 C16,15.1195102 14.8807553,14 13.500171,14 C12.1192447,14 11,15.1195102 11,16.5 C11,17.8804898 12.1192447,19 13.500171,19 C14.8807553,19 16,17.8804898 16,16.5" id="Fill-5" fill="#FEFEFE" mask="url(#mask-2)"></path>
            <path d="M15,14.99978 C15,14.4475248 14.5524752,14 14.00022,14 C13.4479648,14 13,14.4475248 13,14.99978 C13,15.5520352 13.4479648,16 14.00022,16 C14.5524752,16 15,15.5520352 15,14.99978" id="Fill-6" fill="#0B0405" mask="url(#mask-2)"></path>
            <path d="M131.51368,34 C131.351327,34 131.224139,34.0322447 131.135732,34.0953562 C131.045682,34.1603969 131,34.2494144 131,34.3596527 C131,34.4663084 131.04371,34.5536723 131.130145,34.6189886 C131.214937,34.6837536 131.344097,34.7165495 131.51368,34.7165495 L132.489442,34.7165495 L132.489442,37.4873915 C132.489442,37.6557806 132.537096,37.7844839 132.63109,37.8699187 C132.72607,37.9561802 132.8503,38 133.000164,38 C133.147728,38 133.269986,37.9567314 133.36398,37.8712967 C133.456988,37.7866887 133.504314,37.6574342 133.504314,37.4873915 L133.504314,34.7165495 L134.480076,34.7165495 C134.64933,34.7165495 134.779476,34.6837536 134.866568,34.6192642 C134.954975,34.5539479 135,34.466584 135,34.3596527 C135,34.2529971 134.955632,34.1653576 134.86854,34.0986634 C134.781776,34.0333471 134.650974,34 134.480076,34 L131.51368,34 Z" id="Fill-17" fill="#000000" mask="url(#mask-2)"></path>
            <path d="M140.937814,34.1973836 C140.896994,34.138277 140.839911,34.0900156 140.767839,34.0539551 C140.695767,34.0181658 140.61636,34 140.532169,34 C140.417364,34 140.324245,34.0241307 140.255999,34.0713075 C140.189986,34.1173999 140.142151,34.1697282 140.113131,34.227208 C140.0873,34.2789941 140.047756,34.3719921 139.993223,34.5110825 L139.017061,36.9791907 L138.043769,34.5295194 C137.974567,34.3484037 137.908236,34.2193452 137.841904,34.1355656 C137.769513,34.0455501 137.648011,34 137.480268,34 C137.34314,34 137.227697,34.0401274 137.13649,34.1192978 C137.045922,34.1979258 137,34.2873992 137,34.3847353 C137,34.4221514 137.007016,34.4674304 137.02041,34.5197587 C137.034123,34.5707314 137.051024,34.6192639 137.070796,34.6640005 C137.09025,34.7071104 137.108746,34.7507626 137.127561,34.7960415 L138.191103,37.2581848 C138.230328,37.353623 138.268596,37.4441808 138.307821,37.5290449 C138.347365,37.6160781 138.394244,37.694435 138.447182,37.762489 C138.50299,37.8337965 138.576656,37.8915475 138.66563,37.9341151 C138.75588,37.9777672 138.866539,38 138.995376,38 C139.124213,38 139.235191,37.9774961 139.32544,37.9330306 C139.415052,37.8888362 139.488081,37.8316275 139.541976,37.762489 C139.594276,37.6957907 139.640836,37.6174337 139.680379,37.5304006 C139.718967,37.4441808 139.757873,37.353623 139.796141,37.258727 L140.878817,34.7748932 C140.896994,34.7301566 140.915172,34.6867756 140.933668,34.6439368 C140.952802,34.5992002 140.968748,34.5541924 140.980866,34.5105402 C140.993622,34.4644479 141,34.4202535 141,34.3795838 C141,34.3183081 140.979271,34.2570325 140.937814,34.1973836" id="Fill-18" fill="#000000" mask="url(#mask-2)"></path>
            <path d="M65.9717544,8.61643792 L56.5818144,8.61643792 C57.8077606,6.93119398 58.5419812,5.70760021 58.62416,5.56934295 C58.9158275,5.07813901 58.7571954,4.44154415 58.2701849,4.1470256 C57.7835112,3.85386585 57.1520141,4.01250502 56.8600099,4.50370896 C56.8357604,4.54413307 55.7569951,6.3401187 53.9867825,8.61643792 L46.971945,8.61643792 C46.4041029,8.61643792 45.9436994,9.08080568 45.9436994,9.65353724 C45.9436994,10.2259291 46.4041029,10.6902969 46.971945,10.6902969 L52.2768569,10.6902969 C50.166478,13.1021558 47.4872466,15.62068 44.5833706,17.0277109 C44.071437,17.2756907 43.855886,17.8953007 44.101412,18.4116423 C44.278568,18.7832724 44.6463519,19 45.0292917,19 C45.1784934,19 45.3300527,18.9667096 45.4738656,18.8974111 C49.2685734,17.0589631 52.6180338,13.617818 54.9890946,10.6902969 L65.9717544,10.6902969 C66.5395966,10.6902969 67,10.2259291 67,9.65353724 C67,9.08080568 66.5395966,8.61643792 65.9717544,8.61643792" id="Fill-7" fill="#CACBCA" mask="url(#mask-2)"></path>
            <path d="M57.8784137,13 C53.9078604,13 50.5957109,15.7046274 49.8953108,19.2643822 L48.0596241,19.2643822 C47.4748004,19.2643822 47,19.7122593 47,20.2643244 C47,20.8167171 47.4748004,21.2645942 48.0596241,21.2645942 L49.7568274,21.2645942 L49.7568274,23.0315301 L48.0596241,23.0315301 C47.4748004,23.0315301 47,23.4794072 47,24.0314722 C47,24.5838649 47.4748004,25.0317421 48.0596241,25.0317421 L49.7568274,25.0317421 L49.7568274,29.0000578 C49.7568274,29.5521229 50.2312807,30 50.8164514,30 C51.4016221,30 51.8760755,29.5521229 51.8760755,29.0000578 L51.8760755,25.0317421 L59.8230824,25.0317421 C60.4082531,25.0317421 60.8827065,24.5838649 60.8827065,24.0314722 C60.8827065,23.4794072 60.4082531,23.0315301 59.8230824,23.0315301 L51.8760755,23.0315301 L51.8760755,21.2645942 L59.8230824,21.2645942 C60.4082531,21.2645942 60.8827065,20.8167171 60.8827065,20.2643244 C60.8827065,19.7122593 60.4082531,19.2643822 59.8230824,19.2643822 L52.0697441,19.2643822 C52.733354,16.817276 55.0820196,15.000212 57.8784137,15.000212 C61.1881336,15.000212 63.8807519,17.5420047 63.8807519,20.6666602 L63.8807519,25.9084935 C63.8807519,27.2737487 63.1161427,28.0643321 62.8815191,28.2740185 C62.4570447,28.6540752 62.4389968,29.2870661 62.8416053,29.6880914 C63.0501982,29.8954844 63.3299417,30 63.6110736,30 C63.872422,30 64.1348118,29.9092451 64.3395868,29.7257695 C64.7290064,29.3771658 66,28.0718677 66,25.9084935 L66,20.6666602 C66,16.4391852 62.3567397,13 57.8784137,13" id="Fill-8" fill="#CACBCA" mask="url(#mask-2)"></path>
            <path d="M72.8295319,14.8901213 C71.8547604,14.8901213 71.0613024,14.0914091 71.0613024,13.1099268 C71.0613024,12.1281146 71.8547604,11.3294025 72.8295319,11.3294025 L80.8735071,11.3294025 C80.0270394,12.4702313 78.9695457,13.7007957 77.6713135,14.8901213 L72.8295319,14.8901213 Z M88.2303816,11.3294025 C89.2058284,11.3294025 89.9989487,12.1281146 89.9989487,13.1099268 C89.9989487,14.0914091 89.2058284,14.8901213 88.2303816,14.8901213 L80.5986668,14.8901213 C81.7507002,13.6552681 82.6788772,12.4286627 83.4041315,11.3294025 L88.2303816,11.3294025 Z M92.4323322,26.634258 C87.7144651,24.3169701 87.0168974,22.6654405 87.0206114,21.8871828 C87.026689,20.702146 88.669991,19.8767112 88.6993659,19.862525 C89.2102177,19.6210309 89.4249578,19.0209246 89.17983,18.520781 C88.9340268,18.0189879 88.318506,17.8075156 87.8049531,18.04769 C87.7016347,18.0961868 85.5251965,19.143981 85.0538487,21.1320188 C84.9758535,20.8407082 84.8826644,20.5517071 84.7648274,20.2679845 C84.2083939,18.9292096 83.2589456,17.8055361 81.9350525,16.9042219 L88.2303816,16.9042219 C90.3423302,16.9042219 92.0602511,15.2022162 92.0602511,13.1099268 C92.0602511,11.0176375 90.3423302,9.31530185 88.2303816,9.31530185 L84.608837,9.31530185 C85.2473174,8.1279557 85.5542337,7.32396499 85.5957636,7.2121255 C85.7102241,6.90332972 85.6632919,6.55956349 85.4704985,6.29101673 C85.2773675,6.02214007 84.9626854,5.86213371 84.626732,5.86213371 L75.8855267,5.86213371 L77.2073938,4.77870922 C77.6436269,4.42108676 77.7003507,3.78568007 77.3346847,3.35976624 C76.9690188,2.93385241 76.3187209,2.87809762 75.8824879,3.23539017 L73.260025,5.38475392 C72.7900278,5.77041873 72.6215446,6.38240181 72.8305448,6.94390865 C73.0419085,7.51036415 73.579434,7.87656427 74.2006947,7.87656427 L83.0334009,7.87656427 C82.8227125,8.28631251 82.5549627,8.77424942 82.2277879,9.31530185 L72.8295319,9.31530185 C70.7179208,9.31530185 69,11.0176375 69,13.1099268 C69,15.2022162 70.7179208,16.9042219 72.8295319,16.9042219 L75.1457538,16.9042219 C73.7202306,17.8880136 72.0911095,18.7751416 70.2361062,19.4679527 C69.7043205,19.6665585 69.4379213,20.2488497 69.6411815,20.7684579 C69.7981849,21.1699584 70.1895116,21.4160713 70.6044732,21.4160713 C70.7266995,21.4160713 70.8512893,21.3949571 70.972165,21.3497594 C73.8026152,20.2923978 76.1401085,18.8421134 78.0579132,17.2720716 C78.0974173,17.2908765 78.1355708,17.3113309 78.1781136,17.325517 C78.7193532,17.505318 79.2160241,17.7085426 79.672178,17.9325515 C75.5039916,22.0280544 71.9172241,22.6321196 71.8510463,22.6426767 C71.2902235,22.7244944 70.9022732,23.2342054 70.9836448,23.7831757 C71.0582636,24.2846389 71.498886,24.6458904 72.0026474,24.6458904 C72.0519431,24.6458904 72.1015764,24.6425913 72.1515474,24.6353332 C72.3308351,24.6102601 76.5915354,23.958028 81.4191361,19.0697513 C82.0545777,19.6266394 82.5262631,20.2630358 82.8321665,20.9763013 C82.5309901,20.9271447 82.2109058,21.0046735 81.9681414,21.2214244 C77.1803825,25.4914497 70.6520807,27.1053695 70.5568658,27.1284632 C70.0038087,27.2607571 69.6654917,27.8060984 69.8008861,28.3461611 C69.9160219,28.8060557 70.3373987,29.1141916 70.8013183,29.1141916 C70.8823523,29.1141916 70.9647369,29.1046242 71.0471215,29.0848296 C71.333104,29.0165382 78.0670295,27.3659984 83.2505045,22.8020233 C83.3750943,24.8398774 82.4884473,26.692982 82.262565,27.125494 C82.0468119,27.5388713 81.6673027,27.8374398 81.2209404,27.9446606 C80.8191468,28.0409943 80.415665,27.9697338 80.0871397,27.7420959 C79.62322,27.4201037 78.9793373,27.5273244 78.6501367,27.9812806 C78.3209361,28.4349069 78.430332,29.0637154 78.8949269,29.3853776 C79.4776964,29.7891875 80.1712124,30 80.8782341,30 C81.1561132,30 81.4370311,29.967009 81.713222,29.9006971 C82.7413409,29.6535945 83.6111058,28.9756294 84.098998,28.0406644 C84.7449066,26.8031719 85.2665629,25.1529621 85.3141704,23.4450179 C86.085344,25.1298684 88.1280761,26.7744698 91.5061811,28.4339172 C91.6547434,28.5068273 91.8127597,28.5414678 91.9684125,28.5414678 C92.3455583,28.5414678 92.7091984,28.3382433 92.8898367,27.9865592 C93.1457691,27.4893848 92.9404829,26.8839999 92.4323322,26.634258 Z" id="Fill-9" fill="#CACBCA" mask="url(#mask-2)"></path>
            <path d="M129.151231,5 C129.871848,5 130.232513,5.39477826 130.232513,6.18470512 L130.232513,8.9188964 L133.364342,8.9188964 C134.029664,8.9188964 134.362504,9.27330803 134.362504,9.98213128 C134.362504,10.7720581 134.029664,11.1668364 133.364342,11.1668364 L130.232513,11.1668364 L130.232513,14.6302194 L133.919075,14.6302194 C134.639692,14.6302194 135,15.025368 135,15.8152949 C135,16.6048514 134.639692,17 133.919075,17 L123.080925,17 C122.360308,17 122,16.6048514 122,15.8152949 C122,15.025368 122.360308,14.6302194 123.080925,14.6302194 L123.96814,14.6302194 L123.96814,10.3150634 C123.96814,9.58587168 124.290991,9.22109064 124.938119,9.22109064 C125.658736,9.22109064 126.019044,9.58587168 126.019044,10.3150634 L126.019044,14.6302194 L128.070305,14.6302194 L128.070305,6.18470512 C128.070305,5.39477826 128.430614,5 129.151231,5" id="Fill-10" fill="#CACBCA" mask="url(#mask-2)"></path>
            <path d="M131.939488,17 C132.646073,17 133,17.3434828 133,18.0293728 C132.786056,20.4610017 132.408322,22.3630647 131.865528,23.7352033 C131.322733,25.2059408 130.566313,26.4314358 129.596266,27.4116885 C128.741127,28.2546197 127.647919,28.9311876 126.316327,29.4413922 C125.312951,29.8131998 124.260691,30 123.159231,30 C122.386305,30 122,29.5779966 122,28.7354239 C122,27.990016 122.353293,27.6074521 123.060512,27.5880909 C125.000606,27.4704893 126.538206,26.9703238 127.672678,26.0883115 C128.741127,25.2256605 129.538495,24.1177671 130.065101,22.7646313 C130.607578,21.3924927 130.936429,19.7457113 131.051653,17.82357 C131.133549,17.2746428 131.429705,17 131.939488,17" id="Fill-11" fill="#CACBCA" mask="url(#mask-2)"></path>
            <path d="M124.763082,19 C125.09602,19 125.385605,19.0721542 125.631499,19.2161331 C125.877053,19.3963539 126,19.6039207 126,19.8378453 C126,19.9824831 125.964437,20.1531492 125.894666,20.3514909 C125.280271,21.9550272 124.596105,23.369447 123.841829,24.594421 C123.578662,24.8649168 123.271465,25 122.920914,25 C122.30652,25 122,24.7209379 122,24.1621547 C122,23.9101093 122.034547,23.7298885 122.104996,23.621822 C122.736664,22.5589479 123.385605,21.1890066 124.052498,19.5136456 C124.157832,19.1716545 124.394581,19 124.763082,19" id="Fill-12" fill="#CACBCA" mask="url(#mask-2)"></path>
            <path d="M128.000165,17 C128.666722,17 129,17.3411746 129,18.0222776 L129,24.0032715 C129,24.667861 128.666722,25 128.000165,25 C127.333608,25 127,24.667861 127,24.0032715 L127,18.0222776 C127,17.3411746 127.333608,17 128.000165,17" id="Fill-13" fill="#CACBCA" mask="url(#mask-2)"></path>
            <path d="M135.632135,9.78404632 L137.690684,9.78404632 L139.439851,6.90294902 L135.433482,6.90294902 C134.873833,6.90294902 134.593858,6.58617743 134.593858,5.95164019 C134.593858,5.3174343 134.873833,5 135.433482,5 L140.650373,5 C141.391871,5 141.83779,5.95892991 141.432082,6.68226923 C140.641971,8.09051115 139.690117,9.78404632 139.690117,9.78404632 L141.367865,9.78404632 C142.269305,9.78404632 143,10.6359498 143,11.686664 L143,22.8313249 C143,23.4658621 142.696919,23.7823024 142.090758,23.7823024 C141.484596,23.7823024 141.181515,23.4658621 141.181515,22.8313249 L141.181515,12.6383042 C141.181515,12.2327305 140.89974,11.9040303 140.551947,11.9040303 L136.448353,11.9040303 C136.10056,11.9040303 135.818785,12.2327305 135.818785,12.6379728 L135.818785,23.0486912 C135.818785,23.6832284 135.515704,24 134.909242,24 C134.303081,24 134,23.6832284 134,23.0486912 L134,11.686664 C134,10.6359498 134.730695,9.78404632 135.632135,9.78404632" id="Fill-14" fill="#CACBCA" mask="url(#mask-2)"></path>
            <path d="M139.078841,14 C139.692947,14 140,14.2635019 140,14.7901617 L140,19.8410733 C140,21.1957344 139.873835,22.4561404 139.622112,23.622635 C139.353972,24.8269694 138.88184,25.9463364 138.204803,26.9803922 C137.558776,27.9772962 136.653425,28.8995528 135.488448,29.74613 C135.236117,29.9153767 135.078638,30 135.015707,30 C134.338366,30 134,29.5951152 134,28.7867217 C134,28.2033024 134.189096,27.8362573 134.566984,27.6859305 C135.574787,26.8957688 136.322963,26.0963192 136.811208,25.2875817 C137.299149,24.5352597 137.653628,23.6790506 137.874037,22.7196422 C138.063133,21.7788098 138.157377,20.8197454 138.157377,19.8410733 L138.157377,14.7901617 C138.157377,14.2635019 138.464734,14 139.078841,14" id="Fill-15" fill="#CACBCA" mask="url(#mask-2)"></path>
            <path d="M141.074968,24 C141.274775,24 141.474903,24.0744955 141.675032,24.2221319 C142.807915,25.0740891 143.883205,26.0553975 144.899936,27.1667344 C144.966216,27.4443993 145,27.6942977 145,27.9167683 C145,28.6390356 144.608108,29 143.824968,29 C143.624839,29 143.425032,28.9258432 143.224903,28.7778681 C142.275097,27.7220642 141.266409,26.7129893 140.199807,25.7503048 C140.066281,25.4353921 140,25.2129216 140,25.0835704 C140,24.361303 140.358108,24 141.074968,24" id="Fill-16" fill="#CACBCA" mask="url(#mask-2)"></path>
            <path d="M94.4803507,7.56739844 L97.4115856,7.56739844 C97.3342364,7.28200657 96.5617485,5.50730919 96.5121914,5.1415675 C96.4067152,4.36440808 96.8892271,4 97.6436334,4 C98.5001674,4 98.7948312,4.93219122 98.9498645,5.25559089 C99.123984,5.63633566 99.3366108,6.18811551 99.5884144,6.91093045 C99.6654288,7.12064013 99.7046056,7.33901826 99.7046056,7.56739844 L101.852303,7.56739844 C103.284101,7.56739844 104,8.05249795 104,9.02303037 C104,9.23240665 103.82588,9.72717481 103.477641,10.5070014 C102.80025,12.0103098 101.919942,13.4849456 100.836717,14.9305755 C101.494018,15.7297394 102.036133,16.4432191 102.461721,17.0710146 C102.90673,17.7561551 103.380536,18.5649877 103.884144,19.4971789 C103.961158,19.7635669 104,20.0299549 104,20.2963428 C103.922651,20.8291188 103.583787,21.1238459 102.984414,21.1808576 C102.596999,21.1808576 102.296977,21.1051754 102.084685,20.9528108 C101.600499,20.0586274 101.145779,19.2878026 100.720526,18.6410033 C100.526985,18.3369409 100.294603,18.0035392 100.024048,17.6421317 L100.024048,28.8867716 C99.9848711,29.5719122 99.6075005,29.9429883 98.8919363,30 C98.1760373,29.9429883 97.7986667,29.5719122 97.7601595,28.8867716 L97.7601595,18.5266465 C97.0245046,19.2878026 96.2312563,20.0586274 95.3800798,20.838454 C95.1088551,21.1238459 94.7703266,21.2762105 94.3641594,21.2952144 C93.5899973,21.1621871 93.1352775,20.7531032 93,20.0679627 C93,19.9159315 93.1932057,19.5448554 93.5806216,18.9547343 C94.8577212,17.9465275 96.0474263,16.8332991 97.1507412,15.615716 C98.6598886,14.0557294 99.8013759,12.552421 100.575203,11.1061243 C101.039633,10.3072938 101.271681,9.87920599 101.271681,9.82186089 L94.4803507,9.82186089 C93.7446957,9.7648492 93.36766,9.39410648 93.348239,8.70896594 C93.36766,7.98615101 93.7446957,7.60573964 94.4803507,7.56739844" id="Fill-19" fill="#CACBCA" mask="url(#mask-2)"></path>
            <path d="M111.917284,11 C112.715244,11 113.113869,11.2926329 113.113869,11.8765775 L113.113869,18.0684386 C113.113869,18.2946841 113.103249,18.5116817 113.08307,18.7187706 C113.26716,18.6434656 113.471783,18.6054827 113.696939,18.6054827 C114.494898,18.6054827 114.893524,18.9450162 114.893524,19.6234225 L114.893524,26.23937 C114.893524,26.7671662 114.965035,27.1347738 115.108413,27.3421931 C115.271616,27.5681083 115.64015,27.6813962 116.212953,27.6813962 C117.399271,27.6813962 118.105185,27.5866043 118.330342,27.3986719 C118.595856,27.2104092 118.729321,26.9653374 118.729321,26.6634565 L118.729321,26.2314432 C118.770033,25.4592358 119.128301,25.0539756 119.803415,25.0159928 C120.559954,25.0724716 121,25.552046 121,26.458019 C121,28.7521816 120.151062,29.2079755 119.55808,29.434221 C119.005456,29.6604666 117.890296,29.7734242 116.212953,29.7734242 C114.698813,29.7734242 113.717118,29.5376004 113.26716,29.0666134 C112.837734,28.6329486 112.622845,27.8412544 112.622845,26.6918611 L112.622845,22.1114626 C112.602312,22.2435768 112.571512,22.3661127 112.5308,22.4790703 C112.101374,23.9115183 111.344127,25.2313389 110.259767,26.4375413 C109.278072,27.6245871 107.866597,28.7082537 106.025344,29.6888711 C105.657164,29.8959601 105.422095,30 105.319783,30 C104.439692,30 104,29.5940792 104,28.7842193 C104,28.1996141 104.235423,27.8320064 104.705914,27.6813962 C106.40379,26.7199353 107.661974,25.7399784 108.480466,24.740865 C109.278072,23.8177172 109.861141,22.7617947 110.229321,21.5744185 C110.556435,20.4246949 110.720346,19.2558148 110.720346,18.0684386 L110.720346,11.8765775 C110.720346,11.2926329 111.119325,11 111.917284,11" id="Fill-20" fill="#CACBCA" mask="url(#mask-2)"></path>
            <path d="M107.099102,22 C106.492032,22 106,21.5298781 106,20.9498394 L106,10.047422 C106,7.16998188 108.29346,5 111.334677,5 L114.664591,5 C117.606888,5 120,7.26414628 120,10.047422 L120,20.7685117 C120,21.3489004 119.507968,21.8186723 118.900898,21.8186723 C118.293827,21.8186723 117.801795,21.3489004 117.801795,20.7685117 L117.801795,10.047422 C117.801795,8.42247344 116.394578,7.10032123 114.664591,7.10032123 L111.334677,7.10032123 C109.517494,7.10032123 108.198205,8.33951075 108.198205,10.047422 L108.198205,20.9498394 C108.198205,21.5298781 107.706173,22 107.099102,22" id="Fill-21" fill="#CACBCA" mask="url(#mask-2)"></path>
            <path d="M47.0153928,39 C46.7861769,39 46.5426351,38.83318 46.5426351,38.524379 L46.5426351,36.9785342 C46.5426351,36.9653481 46.5429399,36.9555351 46.5417206,36.9478688 C46.5420255,36.9490954 46.5417206,36.949402 46.541111,36.949402 C46.5392822,36.949402 46.5344052,36.942349 46.5280043,36.933456 L45.0853463,34.7295308 C45.0271279,34.6360012 45,34.5461515 45,34.4510886 C45,34.2023919 45.2063553,34 45.4602606,34 C45.6370495,34 45.7842719,34.0883165 45.8748,34.2483901 C46.1027966,34.6537872 46.5664101,35.3661454 47.0163072,36.0463048 C47.3415378,35.5811101 48.0236988,34.4357559 48.1227616,34.2529899 C48.1959156,34.1064091 48.3474053,34.0122662 48.5153547,34.0122662 C48.7491427,34.0122662 49,34.2033119 49,34.4878872 C49,34.5768169 48.9731769,34.6623735 48.920445,34.7424103 C48.63423,35.2060718 47.9100053,36.3124808 47.5079631,36.8889911 C47.490589,36.9135235 47.4793111,36.9276296 47.4726053,36.9402024 C47.4750438,36.9411224 47.4759582,36.958295 47.4759582,36.9846673 L47.4783967,37.640601 C47.4799207,37.9319227 47.4817496,38.2468568 47.4817496,38.524379 C47.4817496,38.8221404 47.2446087,39 47.0153928,39" id="Fill-22" fill="#CACBCA" mask="url(#mask-2)"></path>
            <path d="M57.5004623,34.8484721 C56.5875609,34.8484721 55.9252296,35.5453561 55.9252296,36.5060154 C55.9252296,37.4561477 56.5875609,38.1455125 57.5004623,38.1455125 C58.4130555,38.1455125 59.0753868,37.4561477 59.0753868,36.5060154 C59.0753868,35.5453561 58.4130555,34.8484721 57.5004623,34.8484721 M57.5004623,39 C56.0284781,39 55,37.9743744 55,36.5060154 C55,35.053898 56.0515934,34 57.5004623,34 C58.9487148,34 60,35.053898 60,36.5060154 C60,37.9743744 58.9721383,39 57.5004623,39" id="Fill-24" fill="#CACBCA" mask="url(#mask-2)"></path>
            <path d="M68.987755,39 C68.0335584,39 67.0062005,38.3611987 67.0062005,36.9583232 C67.0124006,36.5309391 67.0124006,36.1132613 67.0124006,35.6898204 C67.0124006,35.2739626 67.0127106,34.8578015 67.0000004,34.4601432 C66.9996904,34.1989808 67.2011939,34.0057632 67.4684185,34.0057632 C67.6922424,34.0057632 67.9303266,34.1601553 67.9303266,34.4458869 C67.9238164,34.6870298 67.9241264,34.921803 67.9241264,35.1559694 L67.9272265,35.9006309 C67.9290865,36.1499636 67.9303266,36.3992963 67.9303266,36.648629 L67.9303266,36.9583232 C67.9303266,37.7563698 68.4579557,38.113686 68.9812449,38.113686 C69.5222043,38.113686 70.0693638,37.7084446 70.0693638,36.9337539 L70.0724639,36.1090148 C70.0743239,35.8314729 70.0758739,35.5536278 70.0758739,35.2772992 C70.0758739,34.9997573 70.0761839,34.7288886 70.0696738,34.4577166 C70.0693638,34.1592453 70.3077579,34 70.5315818,34 C70.7619159,34 71,34.1668284 71,34.4458869 C70.9872898,34.9894443 70.9872898,35.4186484 70.9872898,35.8414826 C70.9872898,36.1860592 70.9872898,36.5245693 70.9937999,36.9052414 C71.0037201,37.5222033 70.8050066,38.0505945 70.4196699,38.4339966 C70.0520035,38.7988959 69.5435946,39 68.987755,39" id="Fill-26" fill="#CACBCA" mask="url(#mask-2)"></path>
            <path d="M77.5393066,39 C77.2519739,39 77,38.7804354 77,38.5305121 C77,38.4231831 77.0466873,38.3155474 77.1318229,38.2263109 C78.2310333,37.0334253 78.6793683,36.5280589 78.8475798,36.3265869 C78.6000687,36.0263723 77.8935805,35.2434836 77.4538277,34.7792088 C77.3621696,34.6703465 77.3230347,34.5743637 77.3230347,34.4694879 C77.3230347,34.2192579 77.5684861,34 77.8482664,34 C78.0116718,34 78.1613457,34.0720638 78.2595263,34.1974854 C78.5145898,34.5062864 78.9090285,34.9515486 79.3271541,35.4228764 C79.3326468,35.4290095 79.4177824,35.525299 79.4994851,35.6172953 C80.0652249,34.9711745 80.472022,34.4955535 80.715757,34.1941122 C80.8221765,34.0714505 80.9656711,34.0061331 81.1242705,34.0061331 C81.4164092,34.0061331 81.6632338,34.2210978 81.6632338,34.475621 C81.6632338,34.5863232 81.6196361,34.6899724 81.5372468,34.7749157 C81.1658084,35.1717265 80.4050807,36.015946 80.1496739,36.3278136 C80.494679,36.7141981 80.8719533,37.1232751 81.2135256,37.4934069 L81.2657055,37.5498313 C81.4950223,37.7982214 81.7068314,38.0275989 81.8801922,38.2198712 C81.9567456,38.298988 82,38.4017173 82,38.5121128 C82,38.7730757 81.7497425,38.9935603 81.4534844,38.9935603 C81.2976313,38.9935603 81.151047,38.9279362 81.0514933,38.8129408 C80.7844147,38.4964735 80.3834535,38.041705 79.9708205,37.574057 L79.502918,37.0423183 L79.2269138,37.3554125 C78.7603845,37.8865379 78.2773773,38.4351426 77.9570889,38.8114075 C77.8458634,38.9356026 77.7023687,39 77.5393066,39" id="Fill-28" fill="#CACBCA" mask="url(#mask-2)"></path>
            <path d="M88,38.5488837 C88.0263071,37.8524289 88.038803,37.0934127 88.038803,36.3527969 C88.038803,35.6919161 88.0269648,35.0439156 88.0006577,34.4750368 C88,34.1652969 88.5189083,34 89.0069056,34 C89.494903,34 90,34.1689769 90,34.4511163 C89.9875041,35.0540358 89.9730352,35.7277969 89.9730352,36.4263984 C89.9730352,37.0860525 89.9855311,37.7671737 89.998027,38.4243744 L90,38.5283366 C90,38.8383832 89.4935876,39 88.9937521,39 C88.5123315,39 88,38.8417566 88,38.5488837 Z" id="Fill-30" fill="#CACBCA" mask="url(#mask-2)"></path>
            <path d="M96.5208914,36.5489114 C96.6636857,36.5504446 96.8322827,36.5522846 96.9967747,36.5522846 C97.1471925,36.5522846 97.2946782,36.5507513 97.4169477,36.549218 C97.323413,36.2646427 97.212872,35.9426556 97.1125935,35.649494 C97.0571764,35.4881938 97.005571,35.3379331 96.9618824,35.208525 C96.8275913,35.6065624 96.632312,36.1993254 96.5208914,36.5489114 M98.5572497,39 C98.3704735,39 98.2112593,38.8810181 98.1417681,38.6896657 C98.0772614,38.5271389 97.8772907,37.9619749 97.6984313,37.4130635 C97.5617945,37.4050905 97.3363143,37.4050905 97.1319455,37.4050905 C96.8205542,37.4050905 96.448468,37.4050905 96.2517226,37.4078504 L96.1537898,37.7022386 L96.1367835,37.7565164 C96.0262425,38.1128488 95.9186336,38.4581417 95.8573523,38.6678933 C95.8010556,38.8662987 95.6295265,39 95.4310218,39 C95.2193227,39 95,38.8405397 95,38.5737504 C95,38.5305121 95.0082099,38.482674 95.0240434,38.4317694 C95.2606656,37.6301748 95.6925671,36.357559 96.0080633,35.4280895 L96.0309339,35.3606256 C96.1464595,35.0208525 96.2479109,34.7218645 96.3215071,34.5007666 C96.4279431,34.1913523 96.671016,34 96.9560182,34 C97.2498167,34 97.4993403,34.1928856 97.6069491,34.5032199 C98.1235889,36.0101196 98.788594,37.9208832 98.9627621,38.3483594 C98.9879783,38.4145967 99,38.4786875 99,38.5427783 C99,38.7948482 98.8012022,39 98.5572497,39" id="Fill-32" fill="#CACBCA" mask="url(#mask-2)"></path>
            <path d="M108.311734,39 C108.06367,39 107.831842,38.8660578 107.691724,38.6417047 C107.40457,38.1738204 106.73645,36.9616438 106.24844,36.0764079 C106.116741,35.8371385 105.994362,35.6158295 105.890626,35.4286149 C105.89243,36.2986301 105.904157,37.9595129 105.920394,38.5327245 C105.920695,38.7942161 105.722844,38.9878234 105.460648,38.9878234 C105.198151,38.9878234 105,38.7978691 105,38.5461187 C105.012328,37.9759513 105.018041,37.3385084 105.018041,36.7193303 C105.018041,35.9981735 105.011727,35.3056317 105.000301,34.769863 C105,34.24414 105.335563,34.0063927 105.647072,34.0063927 C105.91438,34.0063927 106.166654,34.1595129 106.322408,34.4155251 C106.465835,34.6608828 106.734646,35.1403349 107.036834,35.6809741 C107.36939,36.2761035 107.792753,37.0340944 108.102458,37.5652968 C108.098248,36.6730594 108.082913,34.964688 108.067879,34.4800609 C108.067579,34.1665145 108.302112,34 108.522213,34 C108.783507,34 108.988574,34.2048706 108.988574,34.4660578 C108.976246,34.8237443 108.976246,35.2681887 108.976246,35.7388128 C108.976246,36.6824962 108.989175,37.7035008 109,38.2916286 C109.0003,38.7528158 108.645493,39 108.311734,39" id="Fill-34" fill="#CACBCA" mask="url(#mask-2)"></path>
            <path d="M118.602658,39 C117.119156,39 116,37.9409889 116,36.5363932 C116,35.2758662 116.925742,34 118.694902,34 C119.715202,34 120.623421,34.5702599 120.623421,35.0202117 C120.623421,35.26955 120.394631,35.4803898 120.124182,35.4803898 C119.961846,35.4803898 119.815381,35.4088065 119.711235,35.2785731 C119.496991,35.0129933 119.121735,34.8605029 118.682008,34.8605029 C117.580044,34.8605029 116.985585,35.7237127 116.985585,36.5363932 C116.985585,37.4522377 117.656087,38.0913739 118.615552,38.0913739 C119.739007,38.0913739 119.975071,37.2895212 119.975071,37.1319177 C119.975071,37.1234962 119.97474,37.1165784 119.97441,37.1111646 C119.951928,37.1075553 119.909939,37.1048484 119.832904,37.1048484 C119.597831,37.1048484 119.212987,37.110563 118.912451,37.1225938 C118.581829,37.1225938 118.40726,36.8916025 118.40726,36.6747474 C118.40726,36.2323147 118.878728,36.2323147 119.131984,36.2323147 C119.464921,36.2323147 119.851418,36.2383301 120.111287,36.2446463 C120.658798,36.2518648 121,36.5598532 121,37.0477021 C121,37.7283446 120.296767,39 118.602658,39" id="Fill-36" fill="#CACBCA" mask="url(#mask-2)"></path>
        </g>
    </g>
</svg>